<?xml version="1.0" encoding="utf-8"?>
<!-- Generator: Adobe Illustrator 26.0.2, SVG Export Plug-In . SVG Version: 6.00 Build 0)  -->
<svg version="1.1" id="Ebene_1" xmlns="http://www.w3.org/2000/svg" xmlns:xlink="http://www.w3.org/1999/xlink" x="0px" y="0px"
	 viewBox="0 0 255.1 36.9" style="enable-background:new 0 0 255.1 36.9;" xml:space="preserve">
<style type="text/css">
	.st0{fill:#1AA8D7;}
	.st1{fill:#EEA400;}
	.st2{fill:#FFFFFF;}
</style>
<g>
	<g>
		<g>
			<path class="st0" d="M114.9,0L114.9,0h34.6v5.3l-11.3,16.3h-8.7l8.7-12.7h-34.5C104.3,3.6,108.8,0,114.9,0"/>
		</g>
	</g>
	<g>
		<g>
			<path class="st1" d="M127.2,15.3L118.4,28h34.5c-0.5,5.3-5,8.9-11.1,8.9h-34.6v-5.3l11.3-16.3L127.2,15.3"/>
		</g>
	</g>
</g>
<g>
	<path class="st2" d="M22.5,4c-2.2-1.2-4.8-1.8-7.8-1.8S9.1,2.8,6.9,4S3,7,1.9,9.4C0.6,11.7,0,14.8,0,18.5s0.6,6.7,1.8,9.1
		s2.9,4.2,5.1,5.4c2.2,1.2,4.8,1.8,7.8,1.8s5.6-0.6,7.7-1.8c2.2-1.2,3.9-3,5.1-5.4s1.8-5.4,1.8-9.1s-0.6-6.7-1.7-9.1
		C26.3,6.9,24.7,5.2,22.5,4z M20.8,24.7c-0.6,1.5-1.4,2.6-2.4,3.2s-2.3,1-3.7,1c-1.5,0-2.7-0.3-3.8-1c-1-0.6-1.8-1.7-2.4-3.2
		s-0.8-3.6-0.8-6.3c0-2.6,0.3-4.7,0.8-6.2C9,10.7,9.8,9.6,10.9,9c1-0.6,2.3-1,3.8-1c1.4,0,2.7,0.3,3.7,1c1,0.6,1.8,1.7,2.4,3.2
		s0.8,3.6,0.8,6.3C21.6,21.2,21.3,23.2,20.8,24.7z"/>
	<path class="st2" d="M57.3,3.4c-1.6-0.8-3.4-1.2-5.4-1.2c-1.9,0-3.6,0.3-5.2,1s-3,1.6-4.2,2.8H42l-0.5-3.3h-6.3v31.4h7.6V11.9
		c0.6-0.7,1.2-1.4,2-1.8c0.8-0.5,1.6-0.8,2.4-1c0.8-0.2,1.6-0.3,2.4-0.3c1.6,0,2.9,0.4,3.8,1.3c0.9,0.8,1.4,2.4,1.4,4.5v19.6h7.6
		v-20c0-2.9-0.5-5.2-1.4-7C60.1,5.5,58.9,4.2,57.3,3.4z"/>
	<path class="st2" d="M95.1,18.6c0-3.6-0.5-6.7-1.5-9.1S91.1,5.2,89.2,4S84.9,2.2,82,2.2c-2.9,0-5.4,0.6-7.5,1.8s-3.7,3-4.8,5.4
		c-1.1,2.4-1.7,5.4-1.7,8.9c0,3.8,0.6,6.9,1.8,9.3c1.2,2.4,3,4.2,5.4,5.3c2.4,1.1,5.5,1.7,9.2,1.7c1.4,0,2.9-0.1,4.3-0.3
		c1.5-0.2,3-0.5,4.6-0.9v-5.8c-1.4,0.3-2.8,0.6-4.1,0.8c-1.3,0.2-2.6,0.3-3.8,0.3c-2.4,0-4.4-0.3-5.8-0.9s-2.5-1.6-3.1-2.9
		c-0.5-1.1-0.8-2.6-0.9-4.4H95L95.1,18.6L95.1,18.6z M78.5,8.1c0.9-0.6,2.1-0.9,3.4-0.9s2.4,0.3,3.3,0.9s1.6,1.6,2,3
		c0.4,1.3,0.6,3,0.7,5H75.7c0-2.1,0.3-3.8,0.7-5.1C76.9,9.7,77.6,8.7,78.5,8.1z"/>
</g>
<g>
	<path class="st2" d="M182.5,4c-2.2-1.2-4.8-1.8-7.8-1.8s-5.6,0.6-7.8,1.8s-3.9,3-5,5.4c-1.2,2.4-1.8,5.5-1.8,9.2s0.6,6.7,1.8,9.1
		s2.9,4.2,5.1,5.3c2.2,1.2,4.8,1.8,7.8,1.8s5.6-0.6,7.7-1.8c2.2-1.2,3.9-3,5.1-5.4c1.2-2.4,1.8-5.4,1.8-9.1s-0.6-6.7-1.7-9.1
		C186.4,6.9,184.7,5.2,182.5,4z M180.8,24.7c-0.6,1.5-1.4,2.6-2.4,3.2s-2.3,1-3.7,1c-1.5,0-2.7-0.3-3.8-1c-1-0.6-1.8-1.7-2.4-3.2
		c-0.6-1.5-0.8-3.6-0.8-6.3c0-2.6,0.3-4.7,0.8-6.2c0.6-1.5,1.4-2.6,2.4-3.2s2.3-1,3.8-1c1.4,0,2.7,0.3,3.7,1c1,0.6,1.8,1.7,2.4,3.2
		c0.6,1.5,0.8,3.6,0.8,6.3S181.3,23.2,180.8,24.7z"/>
	<path class="st2" d="M217.3,3.4c-1.6-0.8-3.4-1.2-5.4-1.2c-1.9,0-3.6,0.3-5.2,1s-3,1.6-4.2,2.8H202l-0.5-3.3h-6.3v31.4h7.6V11.9
		c0.6-0.7,1.2-1.4,2-1.8c0.8-0.5,1.6-0.8,2.4-1c0.8-0.2,1.6-0.3,2.4-0.3c1.6,0,2.9,0.4,3.8,1.3c0.9,0.8,1.4,2.4,1.4,4.5v19.6h7.6
		v-20c0-2.9-0.5-5.2-1.4-7C220.1,5.5,218.9,4.2,217.3,3.4z"/>
	<path class="st2" d="M255.1,18.6c0-3.6-0.5-6.7-1.5-9.1s-2.5-4.3-4.4-5.5s-4.3-1.8-7.2-1.8s-5.4,0.6-7.5,1.8s-3.7,3-4.8,5.4
		s-1.7,5.4-1.7,8.9c0,3.8,0.6,6.9,1.8,9.3s3,4.2,5.4,5.3c2.4,1.1,5.5,1.7,9.2,1.7c1.4,0,2.9-0.1,4.3-0.3c1.5-0.2,3-0.5,4.6-0.9v-5.8
		c-1.4,0.3-2.8,0.6-4.1,0.8c-1.3,0.2-2.6,0.3-3.8,0.3c-2.4,0-4.4-0.3-5.8-0.9c-1.4-0.6-2.5-1.6-3.1-2.9c-0.5-1.1-0.8-2.6-0.9-4.4
		H255v-1.9H255.1z M238.6,8.1c0.9-0.6,2.1-0.9,3.4-0.9c1.3,0,2.4,0.3,3.3,0.9c0.9,0.6,1.6,1.6,2,3c0.4,1.3,0.6,3,0.7,5h-12.3
		c0-2.1,0.3-3.8,0.7-5.1C236.9,9.7,237.6,8.7,238.6,8.1z"/>
</g>
</svg>
